HIERARCHY
ROOT Hips
{
    OFFSET 0.000000 0.000000 0.000000
    CHANNELS 6 Xposition Yposition Zposition Zrotation Xrotation Yrotation
    JOINT Spine
    {
        OFFSET -0.000000 0.081015 0.000000
        CHANNELS 3 Zrotation Xrotation Yrotation
        JOINT Spine1
        {
            OFFSET -0.000000 0.240812 0.000000
            CHANNELS 3 Zrotation Xrotation Yrotation
            JOINT Neck
            {
                OFFSET -0.000000 0.239823 0.021802
                CHANNELS 3 Zrotation Xrotation Yrotation
                JOINT Head
                {
                    OFFSET -0.000000 0.148909 -0.021273
                    CHANNELS 3 Zrotation Xrotation Yrotation
                    End Site
                    {
                        OFFSET -0.000000 0.197598 0.000000
                    }
                }
            }
            JOINT LeftShoulder
            {
                OFFSET 0.039829 0.224972 -0.001181
                CHANNELS 3 Zrotation Xrotation Yrotation
                JOINT LeftArm
                {
                    OFFSET 0.107364 0.000000 0.000000
                    CHANNELS 3 Zrotation Xrotation Yrotation
                    JOINT LeftForeArm
                    {
                        OFFSET 0.283104 0.000000 0.000000
                        CHANNELS 3 Zrotation Xrotation Yrotation
                        JOINT LeftHand
                        {
                            OFFSET 0.324767 0.000000 0.000000
                            CHANNELS 3 Zrotation Xrotation Yrotation
                            End Site
                            {
                                OFFSET 0.148198 0.000000 0.000000
                            }
                        }
                    }
                }
            }
            JOINT RightShoulder
            {
                OFFSET -0.039119 0.224972 -0.001181
                CHANNELS 3 Zrotation Xrotation Yrotation
                JOINT RightArm
                {
                    OFFSET -0.107364 0.000000 0.000000
                    CHANNELS 3 Zrotation Xrotation Yrotation
                    JOINT RightForeArm
                    {
                        OFFSET -0.283104 0.000000 0.000000
                        CHANNELS 3 Zrotation Xrotation Yrotation
                        JOINT RightHand
                        {
                            OFFSET -0.324767 0.000000 0.000000
                            CHANNELS 3 Zrotation Xrotation Yrotation
                            End Site
                            {
                                OFFSET -0.148198 0.000000 0.000000
                            }
                        }
                    }
                }
            }
        }
    }
    JOINT LeftUpLeg
    {
        OFFSET 0.098799 0.000000 0.000000
        CHANNELS 3 Zrotation Xrotation Yrotation
        JOINT LeftLeg
        {
            OFFSET -0.000000 -0.332632 0.000000
            CHANNELS 3 Zrotation Xrotation Yrotation
            JOINT LeftFoot
            {
                OFFSET -0.000000 -0.498967 0.000000
                CHANNELS 3 Zrotation Xrotation Yrotation
                JOINT LeftToeBase
                {
                    OFFSET -0.000000 -0.064219 0.148198
                    CHANNELS 3 Zrotation Xrotation Yrotation
                    End Site
                    {
                        OFFSET -0.000000 0.000000 0.039520
                    }
                }
            }
        }
    }
    JOINT RightUpLeg
    {
        OFFSET -0.098799 0.000000 0.000000
        CHANNELS 3 Zrotation Xrotation Yrotation
        JOINT RightLeg
        {
            OFFSET -0.000000 -0.332632 0.000000
            CHANNELS 3 Zrotation Xrotation Yrotation
            JOINT RightFoot
            {
                OFFSET -0.000000 -0.498967 0.000000
                CHANNELS 3 Zrotation Xrotation Yrotation
                JOINT RightToeBase
                {
                    OFFSET -0.000000 -0.064219 0.148198
                    CHANNELS 3 Zrotation Xrotation Yrotation
                    End Site
                    {
                        OFFSET -0.000000 0.000000 0.039520
                    }
                }
            }
        }
    }
}
MOTION
Frames:    11
Frame Time:    0.010000
0.442194    0.831551    -0.845544    -5.917933    -2.806994    -63.192894    -2.650872    10.633238    -4.368297    2.144205    7.365674    -1.664830    -2.350652    43.219849    5.941983    -12.327723    10.703767    4.921363    -17.874083    22.354702    2.549638    -50.446892    -7.786727    -19.415779    50.178299    -43.846470    -86.513435    48.387192    3.261645    -4.546545    8.747876    18.834837    1.944769    35.681332    20.138308    20.045881    -104.377960    -42.848473    18.615440    -33.370712    -23.007383    2.377661    23.913216    -20.124008    11.868142    -9.409330    42.059364    7.253932    -11.222877    -8.108747    8.773936    0.000000    0.000000    0.000000    -17.439116    -9.686099    -14.996109    11.094256    19.232220    -49.498409    0.000000    0.000000    0.000000    0.000000    0.000000    0.000000    
0.443859    0.827897    -0.843718    -5.761111    -2.825299    -62.909290    -3.140709    10.868335    -4.099583    2.660465    6.798259    -1.610681    -1.757475    43.215954    5.672476    -12.435232    9.872382    4.709000    -17.498068    22.263165    1.805962    -50.408298    -8.019413    -19.338552    50.106361    -43.778042    -86.622444    48.532768    3.310605    -4.669914    8.861928    18.834000    1.386344    35.479900    20.311081    20.277649    -104.972908    -42.535328    17.915081    -33.500824    -23.209801    2.172171    23.993628    -20.934608    11.901885    -10.033658    42.850498    7.803308    -16.154251    -13.045195    12.236248    0.000000    0.000000    0.000000    -17.993914    -10.398225    -15.556588    11.137332    20.392565    -49.476032    0.000000    0.000000    0.000000    0.000000    0.000000    0.000000    
0.444388    0.824525    -0.840702    -6.009779    -2.985570    -62.781639    -3.296683    11.100981    -4.116387    2.750206    6.808177    -1.628495    -1.807519    43.062824    5.903234    -12.447215    8.887808    4.829757    -17.284790    21.949297    1.554751    -50.191856    -8.295823    -19.277952    50.014668    -43.662304    -86.668839    48.557865    3.380420    -4.689750    8.779435    18.754478    1.579889    35.558113    20.227661    20.334982    -105.348190    -42.487232    17.619635    -33.611046    -23.326521    1.983789    24.163530    -20.807503    11.823163    -10.470729    43.745846    8.228506    -13.949801    -11.700053    8.449245    0.000000    0.000000    0.000000    -18.486879    -10.543739    -15.532437    11.480319    21.423019    -47.832348    0.000000    0.000000    0.000000    0.000000    0.000000    0.000000    
0.444982    0.820908    -0.837649    -6.273817    -3.125543    -62.641479    -3.425021    11.341368    -4.100442    2.841762    6.837982    -1.635324    -1.719050    42.912884    6.034447    -12.608475    7.853509    4.868562    -17.017084    21.653519    1.297748    -50.006210    -8.663051    -19.266146    49.721970    -43.423161    -86.879692    48.571121    3.477103    -4.790432    8.733613    18.659657    1.716103    35.614746    20.273579    20.396235    -105.809937    -42.342014    17.197689    -33.657681    -23.441120    1.749991    24.415430    -21.079395    11.937877    -11.170822    44.526615    8.824672    -11.028996    -11.122742    7.224041    0.000000    0.000000    0.000000    -18.918730    -10.511959    -14.356246    12.223491    21.905039    -48.032951    0.000000    0.000000    0.000000    0.000000    0.000000    0.000000    
0.445019    0.817594    -0.833880    -6.811115    -3.381634    -62.530941    -3.464455    11.757448    -4.068011    2.861950    7.035002    -1.635857    -1.638689    42.776611    6.161448    -12.828526    6.683957    4.877432    -16.841223    21.311859    1.030777    -49.782112    -8.603338    -19.273727    50.112049    -43.507275    -86.371361    48.578003    3.342121    -4.833797    8.719604    18.590990    1.876369    35.696644    20.162531    20.450008    -106.131073    -42.215122    16.973078    -33.650845    -23.352085    1.406089    24.626223    -21.095928    12.165609    -11.582674    45.681374    8.683393    -10.520511    -11.840801    7.095193    0.000000    0.000000    0.000000    -19.346931    -10.341904    -15.039722    12.160232    23.147636    -45.765755    0.000000    0.000000    0.000000    0.000000    0.000000    0.000000    
0.445367    0.814000    -0.830644    -7.248986    -3.601165    -62.390671    -3.627199    12.080273    -4.037498    3.025066    7.352274    -1.652779    -1.871760    42.294315    6.496830    -12.714293    5.817711    5.087041    -16.756275    20.966299    0.831796    -49.459099    -8.669839    -19.367311    50.213963    -43.501892    -86.116478    48.624302    3.239529    -4.777756    8.645354    18.475725    2.047037    35.833477    20.165928    20.567608    -106.553535    -42.074009    16.626066    -33.518002    -23.435364    1.308477    24.921318    -21.528461    12.952127    -11.508554    47.327244    6.757981    -9.774133    -12.457783    8.084002    0.000000    0.000000    0.000000    -19.671055    -10.116258    -14.675658    12.068755    23.796459    -44.118416    0.000000    0.000000    0.000000    0.000000    0.000000    0.000000    
0.446212    0.810249    -0.827454    -7.498734    -3.801325    -62.157856    -3.827821    12.306681    -4.057493    3.205534    7.544395    -1.685302    -1.981153    42.128925    6.718633    -12.831939    4.628497    5.148616    -16.693439    20.581932    0.612577    -49.150398    -8.922121    -19.353035    49.842937    -43.275806    -86.310570    48.766636    3.246719    -4.742997    8.593802    18.450844    2.314642    36.055916    20.001116    20.552235    -106.844849    -41.966667    16.445078    -33.274887    -23.396030    1.207888    25.158192    -22.288614    14.062193    -11.008285    49.258087    5.124806    -10.095006    -12.547466    8.593105    0.000000    0.000000    0.000000    -20.177183    -10.492015    -16.653757    11.296424    25.578144    -41.432568    0.000000    0.000000    0.000000    0.000000    0.000000    0.000000    
0.447010    0.806678    -0.824028    -7.706646    -4.045177    -61.899017    -4.167258    12.471245    -3.885751    3.511682    7.753289    -1.667625    -1.963717    42.080761    6.828488    -12.825927    3.457576    5.138938    -16.641340    20.335495    0.014122    -48.923489    -8.961104    -19.349831    50.030682    -43.291603    -85.973946    48.724678    3.131227    -4.736426    8.639546    18.545452    2.329986    36.247471    19.795582    20.581823    -107.023018    -41.857990    16.306499    -33.075478    -23.332064    1.058122    25.306761    -22.758060    15.131079    -10.401955    50.680126    4.523489    -10.423456    -12.705668    7.638835    0.000000    0.000000    0.000000    -20.701099    -10.574040    -16.806572    11.287050    26.498461    -41.311436    0.000000    0.000000    0.000000    0.000000    0.000000    0.000000    
0.447759    0.803435    -0.820347    -7.866421    -4.323432    -61.628151    -4.384074    12.423562    -3.880378    3.585506    8.367702    -1.696740    -2.094035    41.645191    7.027910    -12.915588    2.350554    5.188518    -16.678234    20.061747    -0.137151    -48.500034    -9.188425    -19.620481    49.721745    -43.113888    -86.052292    48.759449    3.035190    -4.715589    8.588654    18.218283    2.625124    36.712032    19.734137    20.345190    -107.162476    -41.857971    16.377840    -32.917896    -23.138361    0.897154    25.563351    -23.613178    16.239775    -10.134859    52.557049    1.467333    -9.642053    -12.942261    9.859445    0.000000    0.000000    0.000000    -21.290442    -10.352101    -14.876819    12.517441    26.586348    -42.085415    0.000000    0.000000    0.000000    0.000000    0.000000    0.000000    
0.448155    0.800679    -0.816554    -8.080402    -4.599526    -61.378174    -4.634789    12.369885    -3.726829    3.703190    8.955733    -1.681125    -2.260887    41.193455    7.286682    -12.678452    1.560712    5.369252    -16.550812    19.691580    -0.547755    -48.314236    -9.191357    -19.705452    49.608120    -43.001972    -85.976723    48.701347    2.923623    -4.780164    8.611913    18.445744    2.674338    36.941044    19.620531    20.586130    -107.391151    -41.703758    16.149246    -32.975136    -23.114754    0.721491    25.606272    -23.669615    17.124506    -9.896862    53.220009    1.533518    -14.251360    -16.796515    11.579178    0.000000    0.000000    0.000000    -21.835472    -10.481261    -16.931059    11.512169    28.056917    -39.884335    0.000000    0.000000    0.000000    0.000000    0.000000    0.000000    
0.448679    0.798272    -0.813260    -8.305550    -4.835432    -61.086678    -4.882917    12.455952    -3.543667    3.875793    9.376956    -1.657146    -2.187542    40.961914    7.299593    -12.714205    0.552324    5.292047    -16.534649    19.453875    -0.930098    -48.035194    -9.169408    -19.828939    49.617702    -42.939171    -85.783928    48.707302    2.787145    -4.849970    8.754442    18.708120    2.610208    37.106598    19.628325    20.840206    -107.638069    -41.578213    15.882593    -33.020538    -23.194901    0.630069    25.857227    -24.068945    18.193748    -9.246731    54.571995    -1.374209    -13.694431    -17.123587    12.889367    0.000000    0.000000    0.000000    -22.233938    -10.184903    -15.465511    12.413593    28.162098    -40.385174    0.000000    0.000000    0.000000    0.000000    0.000000    0.000000    
